<svg width="518" height="583" viewBox="0 0 518 583" fill="none" xmlns="http://www.w3.org/2000/svg">
<path fill-rule="evenodd" clip-rule="evenodd" d="M155.1 0.714355L184.963 58.2856L155.1 115.857L125.237 58.2856L155.1 0.714355ZM109.08 215.724C140.829 174.635 182.757 148.426 231.103 139.448C246.29 136.628 276.511 137.341 293.365 140.918C344.296 151.726 388.955 182.785 416.519 226.569C422.854 236.632 431.386 255.111 433.928 264.274C435.199 268.857 436.685 272.35 437.271 272.13C437.85 271.913 439.403 273.309 440.721 275.233C442.827 278.307 443.206 278.506 443.847 276.876C444.248 275.856 444.608 273.612 444.647 271.889C444.73 268.178 446.277 267.544 455.217 267.56C469.616 267.586 483.226 273.947 495.717 286.488C505.108 295.916 509.633 302.83 513.282 313.32C519.248 330.476 518.649 349.112 511.589 366.022C507.706 375.324 498.987 387.218 491.789 393.033C484.388 399.013 469.121 406.675 461.217 408.376C447.66 411.294 436.103 410.724 421.862 406.436C418.366 405.383 415.131 404.522 414.671 404.522C414.212 404.522 414.893 407.63 416.185 411.428C423.156 431.922 421.922 459.339 413.238 476.913C409.443 484.595 404.77 490.04 402.596 489.315C401.673 489.007 401.3 486.107 401.265 478.955C401.206 467.17 399.313 460.746 394.105 454.663C388.37 447.962 388.049 448.521 387.444 466.272C386.686 488.51 382.951 500.431 371.214 518.07C363.016 530.39 345.621 545.478 339.574 545.513C337.735 545.523 336.313 542.89 337.695 542.036C338.185 541.733 340.007 537.8 341.744 533.296C344.178 526.984 345.009 523.034 345.371 516.064C345.891 506.014 345.173 503.94 341.492 504.864C339.542 505.353 337.938 507.859 333.496 517.362C327.227 530.771 323.558 536.475 315.094 545.97C303.044 559.489 282.63 573.546 265.565 580.076L258.912 582.622L250.923 579.541C236.052 573.806 216.974 560.897 205.943 549.104C194.207 536.559 188.075 527.136 182.623 513.27C180.204 507.12 178.113 504.522 175.581 504.522C173.073 504.522 172.335 508.177 172.987 517.38C173.476 524.274 174.898 529.244 179.819 541.258C182.973 548.956 176.531 547.126 163.56 536.639C141.971 519.183 130.762 494.11 130.73 463.202C130.717 450.493 130.698 450.386 128.473 450.702C126.984 450.914 125.126 452.869 122.954 456.508C118.42 464.106 117.492 467.595 117.118 478.434C116.94 483.61 116.332 488.307 115.769 488.87C114.13 490.509 110.238 486.098 105.855 477.636C99.8776 466.094 98.6056 460.805 97.9956 444.962C97.4786 431.541 97.5996 430.32 100.655 418.114C102.415 411.081 103.628 405.1 103.35 404.822C103.072 404.544 100.004 405.262 96.5306 406.417C82.8716 410.96 63.7946 411.207 51.2166 407.002C28.6566 399.461 10.4496 381.243 3.11858 358.877C0.534582 350.994 0.218585 348.65 0.237585 337.522C0.262585 323.355 1.72158 316.831 7.62058 304.522C12.4606 294.422 26.9526 279.64 37.2166 274.334C49.9006 267.776 61.4326 265.911 72.3296 268.655L76.8276 269.787L76.2156 275.405C76.0924 276.536 75.9836 277.393 75.9036 278.023L75.9036 278.024C75.7739 279.046 75.72 279.47 75.8035 279.499C75.8628 279.52 75.9914 279.341 76.2114 279.035C76.3679 278.817 76.5707 278.535 76.8276 278.214C77.1454 277.818 77.4877 277.489 77.7924 277.195C78.3083 276.699 78.7166 276.306 78.7166 275.866C78.7166 275.166 79.5116 274.167 80.4836 273.647C81.5486 273.076 82.9696 269.985 84.0626 265.861C87.9936 251.018 99.2696 228.42 109.08 215.724ZM256.199 275.155C243.914 258.064 225.65 245.029 208.375 241.023C194.446 237.792 180.07 238.35 167.636 242.604C139.714 252.155 121.882 271.594 116.181 298.692C111.671 320.131 118.692 342.532 135.097 359.045C147.329 371.358 161.661 378.337 178.217 380.046C182.067 380.443 185.47 380.912 185.778 381.087C186.087 381.263 184.219 385.726 181.626 391.004C174.668 405.172 173.203 412.028 173.287 430.022C173.353 444.196 173.534 445.545 176.581 454.522C185.751 481.537 205.974 501.126 232.645 508.825L240.638 511.133L244.643 519.078C248.998 527.719 257.006 538.551 258.982 538.474C261.102 538.392 267.603 529.411 272.32 520.046L276.842 511.07L283.004 509.813C296.114 507.139 314.292 495.7 324.275 483.842C336.685 469.1 342.548 455.782 344.789 437.243C346.827 420.387 343.794 404.735 335.607 389.848C333.437 385.903 332.011 382.458 332.439 382.194C332.867 381.93 337.401 380.992 342.516 380.11C360.071 377.081 369.486 372.435 381.197 361.022C392.981 349.538 397.967 340.601 401.126 325.307C403.139 315.564 403.146 306.513 401.148 296.842C398.063 281.908 392.863 272.538 381.267 261.02C355.326 235.254 314.415 231.784 283.147 252.697C275.479 257.826 269.234 264.297 262.795 273.783L259.113 279.209L256.199 275.155ZM170.066 310.34C171.217 300.37 178.537 291.837 187.992 289.443C201.303 286.072 214.615 296.551 215.543 311.129C216.301 323.032 209.204 332.399 197.125 335.441C183.363 338.906 168.374 325.002 170.066 310.34ZM302.645 302.873C304.909 297.887 311.448 291.492 315.951 289.859C323.827 287.002 333.923 289.805 340.416 296.65C350.96 307.764 348.115 326.022 334.788 332.772C321.554 339.475 305.765 333.638 301.858 320.6C300.177 314.987 300.505 307.585 302.645 302.873ZM94.0306 367.863C81.6846 348.016 78.7166 337.279 78.7166 312.457V296.522L71.4666 296.576C58.7106 296.67 48.3806 301.417 39.8586 311.098C32.6106 319.333 29.1156 333.831 31.5936 345.386C37.0916 371.02 64.4636 385.994 88.7166 376.635L89.1638 376.462C93.7707 374.686 95.8027 373.902 96.14 372.659C96.4062 371.678 95.617 370.41 94.205 368.143L94.0306 367.863ZM479.757 314.581C473.819 305.837 466.442 300.603 456.217 297.878C453.467 297.145 448.563 296.54 445.319 296.534L439.421 296.522L440.018 304.272C441.659 325.574 435.36 351.506 424.777 367.022C421.634 371.629 422.137 373.026 427.82 375.471C439.073 380.312 452.718 380.112 463.395 374.949C469.139 372.171 478.586 362.659 481.741 356.474C488.802 342.634 488.052 326.796 479.757 314.581ZM225.384 371.659C225.384 367.826 229.694 362.89 234.179 361.586L234.248 361.566C236.128 361.019 237.135 360.726 238.152 360.689C239.325 360.646 240.511 360.945 243.065 361.588L243.148 361.609C245.719 362.256 249.839 364.66 253.34 367.555L259.217 372.414L263.217 368.521C267.595 364.261 274.793 360.566 278.717 360.566C280.092 360.566 283.125 361.432 285.458 362.491C297.564 367.987 292.926 382.132 280.139 378.712C275.35 377.432 272.448 378.175 271.381 380.954C270.217 383.988 262.563 388.522 258.605 388.522C255.394 388.522 253.812 387.647 248.583 382.981C244.407 379.255 241.856 377.653 240.795 378.092C239.927 378.45 237.387 378.967 235.15 379.242C229.808 379.897 225.384 376.462 225.384 371.659ZM251.561 424.633C266.205 426.67 282.721 422.636 292.717 414.581C295.987 411.946 297.301 412.015 300.262 414.977C303.915 418.629 303.457 422.127 298.74 426.615C290.226 434.714 274.603 439.846 258.717 439.764C241.696 439.675 227.959 435.253 218.687 426.876C214.27 422.886 213.413 418.62 216.372 415.351C218.851 412.611 223.066 413.131 228.963 416.903C235.597 421.147 241.835 423.28 251.561 424.633ZM393.459 58.2856L363.596 0.714355L333.732 58.2856L363.596 115.857L393.459 58.2856ZM259.621 0.714355L289.484 58.2856L259.621 115.857L229.758 58.2856L259.621 0.714355Z" fill="black"/>
</svg>
